<svg width="430" height="430" viewBox="0 0 430 430" fill="none" xmlns="http://www.w3.org/2000/svg">
<path d="M215 0.25C333.603 0.25 429.75 96.3969 429.75 215C429.75 333.603 333.603 429.75 215 429.75C96.3969 429.75 0.25 333.603 0.25 215C0.25 96.3969 96.3969 0.25 215 0.25ZM215 84.5508C142.955 84.5508 84.5508 142.955 84.5508 215C84.5508 287.045 142.955 345.449 215 345.449C287.045 345.449 345.449 287.045 345.449 215C345.449 142.955 287.045 84.5508 215 84.5508ZM251.708 253.562C254.116 252.147 256.714 251.371 259.408 251.82C262.113 252.271 264.402 253.799 265.726 255.826C267.047 257.849 267.408 260.369 266.27 262.833C264.251 267.201 261.403 271.171 257.852 274.509C251.826 280.172 244.107 283.699 235.882 284.55C227.656 285.4 219.379 283.526 212.322 279.216C208.163 276.675 204.563 273.371 201.694 269.509C200.076 267.33 199.915 264.79 200.794 262.539C201.675 260.284 203.602 258.32 206.157 257.325C208.703 256.334 211.405 256.563 214.052 257.456C216.7 258.35 219.274 259.903 221.545 261.536C221.908 261.798 222.282 262.047 222.666 262.281C226.013 264.326 229.939 265.214 233.841 264.811C237.742 264.407 241.404 262.734 244.263 260.048C244.591 259.74 244.906 259.42 245.208 259.09C247.097 257.026 249.299 254.979 251.708 253.562ZM183 197.25C193.355 197.25 201.75 205.645 201.75 216C201.75 226.355 193.355 234.75 183 234.75C172.645 234.75 164.25 226.355 164.25 216C164.25 205.645 172.645 197.25 183 197.25ZM269 181.25C281.564 181.25 291.75 191.436 291.75 204C291.75 216.564 281.564 226.75 269 226.75C256.436 226.75 246.25 216.564 246.25 204C246.25 191.436 256.436 181.25 269 181.25Z" fill="#FF6F61" stroke="black" stroke-width="0.5"/>
</svg>
