<svg width="431" height="431" viewBox="0 0 431 431" fill="none" xmlns="http://www.w3.org/2000/svg">
<path d="M270.633 7.62195C385.195 38.3187 453.181 156.074 422.484 270.636C391.787 385.198 274.032 453.184 159.47 422.487C44.9082 391.79 -23.0779 274.035 7.61882 159.473C38.3156 44.9113 156.071 -23.0748 270.633 7.62195ZM248.814 89.0503C179.224 70.4036 107.694 111.701 89.0471 181.292C70.4005 250.882 111.698 322.412 181.289 341.059C250.879 359.705 322.409 318.408 341.056 248.817C359.702 179.227 318.404 107.697 248.814 89.0503ZM240.528 261.804C243.22 261.06 245.93 260.983 248.417 262.114C250.912 263.249 252.728 265.317 253.482 267.618C254.234 269.914 253.931 272.442 252.194 274.527C249.114 278.224 245.335 281.322 241.041 283.626C233.755 287.537 225.386 288.947 217.221 287.639C209.056 286.332 201.545 282.379 195.845 276.389C192.485 272.859 189.863 268.736 188.091 264.262C187.092 261.738 187.594 259.243 189.025 257.297C190.46 255.347 192.83 253.948 195.555 253.649C198.271 253.351 200.822 254.271 203.147 255.818C205.473 257.367 207.558 259.533 209.329 261.699C209.612 262.045 209.909 262.383 210.219 262.709C212.923 265.55 216.485 267.424 220.358 268.044C224.231 268.664 228.202 267.996 231.658 266.141C232.054 265.928 232.442 265.701 232.819 265.46C235.177 263.956 237.834 262.548 240.528 261.804ZM188.736 189.627C198.738 192.307 204.674 202.589 201.994 212.591C199.314 222.594 189.033 228.53 179.03 225.849C169.028 223.169 163.092 212.888 165.772 202.885C168.452 192.883 178.733 186.947 188.736 189.627ZM285.647 219.46C286.363 219.614 286.997 219.91 287.541 220.403C288.07 220.882 288.525 221.559 288.887 222.495C288.722 223.023 288.278 223.694 287.473 224.372C286.634 225.079 285.419 225.782 283.775 226.329C280.489 227.423 275.497 227.886 268.402 226.502C262.284 224.862 257.392 222.788 254.126 220.636C252.492 219.56 251.276 218.472 250.516 217.419C249.762 216.376 249.469 215.388 249.628 214.486C250.272 212.884 250.873 212.379 251.514 212.361C251.858 212.352 252.259 212.477 252.748 212.735C253.234 212.992 253.782 213.367 254.418 213.826C256.953 215.661 260.739 218.751 266.917 220.41C271.557 222.176 276.428 220.713 280.412 219.857C282.428 219.425 284.199 219.15 285.647 219.46Z" fill="#FFE98A" stroke="black" stroke-width="0.5"/>
</svg>
