<svg width="255" height="308" viewBox="0 0 255 308" fill="none" xmlns="http://www.w3.org/2000/svg">
<rect x="0.5" y="0.5" width="253.247" height="306.98" rx="49.5" fill="white"/>
<rect x="0.5" y="0.5" width="253.247" height="306.98" rx="49.5" stroke="#4FB4A6"/>
<path d="M127.123 40.25C155.425 40.25 178.373 63.417 178.373 92C178.373 120.583 155.425 143.75 127.123 143.75C98.8207 143.75 75.873 120.583 75.873 92C75.873 63.417 98.8207 40.25 127.123 40.25ZM127.123 60.2598C109.758 60.2598 95.6855 74.4727 95.6855 92C95.6855 109.527 109.758 123.74 127.123 123.74C144.488 123.74 158.561 109.527 158.561 92C158.561 74.4727 144.488 60.2598 127.123 60.2598ZM136.013 101.489C136.565 101.161 137.142 100.993 137.729 101.092C138.325 101.192 138.826 101.532 139.113 101.977C139.398 102.417 139.474 102.958 139.23 103.49C138.757 104.525 138.09 105.466 137.257 106.256C135.844 107.597 134.034 108.431 132.105 108.633C130.177 108.834 128.237 108.391 126.582 107.37C125.607 106.769 124.762 105.986 124.089 105.071C123.743 104.602 123.708 104.056 123.897 103.566C124.089 103.072 124.511 102.635 125.074 102.413C125.629 102.195 126.227 102.241 126.834 102.447C127.442 102.655 128.042 103.018 128.579 103.408C128.67 103.474 128.763 103.537 128.859 103.597C129.697 104.113 130.68 104.337 131.656 104.235C132.633 104.133 133.549 103.71 134.264 103.032C134.346 102.955 134.425 102.874 134.5 102.791C134.947 102.298 135.459 101.818 136.013 101.489ZM119.458 87.8965C121.831 87.8965 123.759 89.8401 123.759 92.2422C123.759 94.6442 121.831 96.5869 119.458 96.5869C117.085 96.5869 115.157 94.6442 115.157 92.2422C115.157 89.84 117.085 87.8965 119.458 87.8965ZM140.058 84.0264C142.96 84.0264 145.317 86.4034 145.317 89.3398C145.317 92.2762 142.96 94.6523 140.058 94.6523C137.156 94.6522 134.799 92.2761 134.799 89.3398C134.799 86.4035 137.155 84.0265 140.058 84.0264Z" fill="#FF6F61" stroke="black" stroke-width="0.5"/>
<g filter="url(#filter0_d_1180_11207)">
<mask id="path-3-outside-1_1180_11207" maskUnits="userSpaceOnUse" x="29" y="173" width="196" height="96" fill="black">
<rect fill="white" x="29" y="173" width="196" height="96"/>
<path d="M35.6408 221.422C33.8043 221.422 32.405 220.941 31.443 219.979C30.481 219.017 30 217.596 30 215.716V179.969C30 178.045 30.481 176.58 31.443 175.574C32.405 174.525 33.6731 174 35.2473 174C36.6465 174 37.7397 174.262 38.5268 174.787C39.3139 175.312 40.1884 176.186 41.1504 177.411L61.9426 203.385H60.1061V179.641C60.1061 177.804 60.5652 176.405 61.4835 175.443C62.4455 174.481 63.8448 174 65.6813 174C67.5179 174 68.8953 174.481 69.8135 175.443C70.7755 176.405 71.2565 177.804 71.2565 179.641V215.978C71.2565 217.64 70.8192 218.973 69.9447 219.979C69.0702 220.941 67.8895 221.422 66.4028 221.422C64.9161 221.422 63.7355 221.16 62.8609 220.635C62.0301 220.067 61.1337 219.192 60.1717 218.011L39.3795 191.972H41.216V215.716C41.216 217.596 40.735 219.017 39.773 219.979C38.8547 220.941 37.4773 221.422 35.6408 221.422Z"/>
<path d="M81.8699 221.422C80.5144 221.422 79.3775 221.116 78.4592 220.504C77.5409 219.848 76.9725 218.973 76.7538 217.88C76.5352 216.743 76.732 215.475 77.3441 214.076L93.6762 178.919C94.4633 177.214 95.4253 175.968 96.5622 175.181C97.7428 174.394 99.0765 174 100.563 174C102.05 174 103.34 174.394 104.433 175.181C105.57 175.968 106.554 177.214 107.385 178.919L123.717 214.076C124.416 215.475 124.657 216.743 124.438 217.88C124.263 219.017 123.717 219.892 122.798 220.504C121.924 221.116 120.831 221.422 119.519 221.422C117.77 221.422 116.414 221.028 115.452 220.241C114.534 219.454 113.703 218.186 112.96 216.437L109.418 208.107L114.009 211.452H86.986L91.6429 208.107L88.101 216.437C87.3139 218.186 86.505 219.454 85.6742 220.241C84.8433 221.028 83.5753 221.422 81.8699 221.422ZM100.432 187.184L92.8235 205.352L90.987 202.204H110.074L108.237 205.352L100.563 187.184H100.432Z"/>
<path d="M135.372 221.422C133.535 221.422 132.136 220.941 131.174 219.979C130.212 219.017 129.731 217.596 129.731 215.716V179.969C129.731 178.045 130.212 176.58 131.174 175.574C132.136 174.525 133.404 174 134.978 174C136.378 174 137.471 174.262 138.258 174.787C139.045 175.312 139.919 176.186 140.881 177.411L161.674 203.385H159.837V179.641C159.837 177.804 160.296 176.405 161.215 175.443C162.177 174.481 163.576 174 165.412 174C167.249 174 168.626 174.481 169.545 175.443C170.507 176.405 170.988 177.804 170.988 179.641V215.978C170.988 217.64 170.55 218.973 169.676 219.979C168.801 220.941 167.621 221.422 166.134 221.422C164.647 221.422 163.467 221.16 162.592 220.635C161.761 220.067 160.865 219.192 159.903 218.011L139.111 191.972H140.947V215.716C140.947 217.596 140.466 219.017 139.504 219.979C138.586 220.941 137.208 221.422 135.372 221.422Z"/>
<path d="M181.601 221.422C180.245 221.422 179.109 221.116 178.19 220.504C177.272 219.848 176.704 218.973 176.485 217.88C176.266 216.743 176.463 215.475 177.075 214.076L193.407 178.919C194.194 177.214 195.156 175.968 196.293 175.181C197.474 174.394 198.808 174 200.294 174C201.781 174 203.071 174.394 204.164 175.181C205.301 175.968 206.285 177.214 207.116 178.919L223.448 214.076C224.147 215.475 224.388 216.743 224.169 217.88C223.994 219.017 223.448 219.892 222.53 220.504C221.655 221.116 220.562 221.422 219.25 221.422C217.501 221.422 216.145 221.028 215.183 220.241C214.265 219.454 213.434 218.186 212.691 216.437L209.149 208.107L213.74 211.452H186.717L191.374 208.107L187.832 216.437C187.045 218.186 186.236 219.454 185.405 220.241C184.574 221.028 183.306 221.422 181.601 221.422ZM200.163 187.184L192.555 205.352L190.718 202.204H209.805L207.968 205.352L200.294 187.184H200.163Z"/>
<path d="M81.999 262.965C80.8908 262.965 79.9611 262.768 79.2097 262.373C78.4772 261.979 77.9231 261.406 77.5474 260.654C77.1906 259.903 77.0121 258.983 77.0121 257.893V250.962H75.2089C74.8708 250.962 74.6079 250.878 74.42 250.709C74.2322 250.521 74.1383 250.277 74.1383 249.976C74.1383 249.657 74.2322 249.413 74.42 249.244C74.6079 249.075 74.8708 248.99 75.2089 248.99H77.0121V245.919C77.0121 245.487 77.1248 245.168 77.3502 244.961C77.5756 244.736 77.8949 244.623 78.3082 244.623C78.7214 244.623 79.0313 244.736 79.2379 244.961C79.4633 245.168 79.576 245.487 79.576 245.919V248.99H82.9851C83.342 248.99 83.6144 249.075 83.8022 249.244C83.99 249.413 84.084 249.657 84.084 249.976C84.084 250.277 83.99 250.521 83.8022 250.709C83.6144 250.878 83.342 250.962 82.9851 250.962H79.576V257.668C79.576 258.701 79.792 259.48 80.224 260.006C80.656 260.532 81.3698 260.795 82.3653 260.795C82.7222 260.795 83.0227 260.767 83.2669 260.711C83.5111 260.636 83.7271 260.598 83.9149 260.598C84.084 260.579 84.2248 260.636 84.3375 260.767C84.469 260.899 84.5348 261.143 84.5348 261.5C84.5348 261.763 84.4878 262.007 84.3939 262.232C84.3188 262.439 84.1591 262.58 83.9149 262.655C83.6895 262.73 83.389 262.796 83.0133 262.852C82.6377 262.927 82.2996 262.965 81.999 262.965Z"/>
<path d="M87.8935 262.908C87.499 262.908 87.1891 262.796 86.9637 262.57C86.7383 262.345 86.6256 262.016 86.6256 261.584V243.947C86.6256 243.515 86.7383 243.196 86.9637 242.989C87.1891 242.764 87.499 242.651 87.8935 242.651C88.3067 242.651 88.626 242.764 88.8514 242.989C89.0768 243.196 89.1895 243.515 89.1895 243.947V251.977H88.8232C89.2177 250.906 89.8563 250.098 90.7391 249.554C91.6407 249.009 92.6644 248.737 93.8102 248.737C94.9184 248.737 95.8294 248.943 96.5431 249.356C97.2569 249.751 97.7922 250.352 98.1491 251.16C98.506 251.967 98.6844 252.982 98.6844 254.202V261.584C98.6844 262.016 98.5717 262.345 98.3463 262.57C98.1397 262.796 97.8298 262.908 97.4165 262.908C97.0033 262.908 96.684 262.796 96.4586 262.57C96.2332 262.345 96.1205 262.016 96.1205 261.584V254.343C96.1205 253.122 95.8857 252.23 95.4161 251.667C94.9465 251.103 94.1952 250.821 93.1621 250.821C91.96 250.821 90.9927 251.197 90.2602 251.948C89.5464 252.681 89.1895 253.677 89.1895 254.935V261.584C89.1895 262.467 88.7575 262.908 87.8935 262.908Z"/>
<path d="M109.088 262.965C107.604 262.965 106.327 262.683 105.257 262.12C104.205 261.537 103.388 260.72 102.805 259.668C102.223 258.598 101.932 257.339 101.932 255.893C101.932 254.465 102.214 253.216 102.777 252.146C103.359 251.075 104.148 250.239 105.144 249.638C106.158 249.037 107.313 248.737 108.609 248.737C109.53 248.737 110.356 248.896 111.089 249.216C111.84 249.516 112.479 249.957 113.005 250.54C113.531 251.122 113.925 251.836 114.188 252.681C114.47 253.507 114.611 254.447 114.611 255.498C114.611 255.799 114.517 256.034 114.329 256.203C114.16 256.353 113.906 256.428 113.568 256.428H103.932V254.794H112.92L112.441 255.189C112.441 254.212 112.291 253.385 111.99 252.709C111.709 252.014 111.286 251.488 110.722 251.131C110.178 250.775 109.492 250.596 108.666 250.596C107.764 250.596 106.994 250.812 106.355 251.244C105.717 251.657 105.228 252.249 104.89 253.019C104.552 253.77 104.383 254.644 104.383 255.639V255.808C104.383 257.499 104.787 258.776 105.595 259.64C106.402 260.504 107.567 260.936 109.088 260.936C109.689 260.936 110.3 260.861 110.92 260.711C111.558 260.561 112.169 260.288 112.751 259.894C113.033 259.725 113.286 259.65 113.512 259.668C113.756 259.668 113.953 259.743 114.103 259.894C114.254 260.025 114.348 260.194 114.385 260.401C114.423 260.589 114.395 260.795 114.301 261.021C114.207 261.246 114.028 261.443 113.765 261.612C113.145 262.044 112.404 262.382 111.54 262.627C110.694 262.852 109.877 262.965 109.088 262.965Z"/>
<path d="M125.202 262.908C124.864 262.908 124.592 262.833 124.385 262.683C124.197 262.533 124.084 262.326 124.047 262.063C124.009 261.8 124.066 261.509 124.216 261.19L131.908 243.778C132.077 243.383 132.293 243.102 132.556 242.933C132.819 242.745 133.11 242.651 133.429 242.651C133.748 242.651 134.03 242.745 134.274 242.933C134.537 243.102 134.763 243.383 134.95 243.778L142.642 261.19C142.792 261.509 142.849 261.81 142.811 262.091C142.792 262.354 142.689 262.561 142.501 262.711C142.313 262.843 142.05 262.908 141.712 262.908C141.337 262.908 141.036 262.814 140.811 262.627C140.585 262.42 140.388 262.129 140.219 261.753L138.219 257.076L139.43 257.752H127.371L128.583 257.076L126.583 261.753C126.414 262.166 126.226 262.467 126.019 262.655C125.812 262.824 125.54 262.908 125.202 262.908ZM133.373 245.806L128.977 256.203L128.301 255.611H138.5L137.852 256.203L133.429 245.806H133.373Z"/>
<path d="M147.077 267.98C146.682 267.98 146.372 267.867 146.147 267.642C145.922 267.416 145.809 267.097 145.809 266.684V250.089C145.809 249.657 145.922 249.338 146.147 249.131C146.372 248.906 146.682 248.793 147.077 248.793C147.49 248.793 147.8 248.906 148.007 249.131C148.232 249.338 148.345 249.657 148.345 250.089V252.653L148.035 252.146C148.335 251.113 148.927 250.286 149.81 249.666C150.693 249.046 151.754 248.737 152.993 248.737C154.214 248.737 155.276 249.028 156.177 249.61C157.079 250.173 157.783 250.991 158.29 252.061C158.797 253.113 159.051 254.371 159.051 255.837C159.051 257.283 158.797 258.551 158.29 259.64C157.802 260.711 157.098 261.537 156.177 262.12C155.276 262.683 154.214 262.965 152.993 262.965C151.773 262.965 150.721 262.655 149.838 262.035C148.955 261.415 148.363 260.598 148.063 259.584H148.373V266.684C148.373 267.097 148.26 267.416 148.035 267.642C147.809 267.867 147.49 267.98 147.077 267.98ZM152.402 260.936C153.209 260.936 153.914 260.739 154.515 260.345C155.135 259.95 155.614 259.377 155.952 258.626C156.29 257.875 156.459 256.945 156.459 255.837C156.459 254.184 156.093 252.925 155.36 252.061C154.628 251.197 153.642 250.765 152.402 250.765C151.575 250.765 150.852 250.962 150.232 251.357C149.631 251.732 149.162 252.296 148.824 253.047C148.504 253.799 148.345 254.728 148.345 255.837C148.345 257.489 148.711 258.757 149.443 259.64C150.176 260.504 151.162 260.936 152.402 260.936Z"/>
<path d="M163.613 267.98C163.218 267.98 162.909 267.867 162.683 267.642C162.458 267.416 162.345 267.097 162.345 266.684V250.089C162.345 249.657 162.458 249.338 162.683 249.131C162.909 248.906 163.218 248.793 163.613 248.793C164.026 248.793 164.336 248.906 164.543 249.131C164.768 249.338 164.881 249.657 164.881 250.089V252.653L164.571 252.146C164.871 251.113 165.463 250.286 166.346 249.666C167.229 249.046 168.29 248.737 169.53 248.737C170.751 248.737 171.812 249.028 172.713 249.61C173.615 250.173 174.319 250.991 174.826 252.061C175.334 253.113 175.587 254.371 175.587 255.837C175.587 257.283 175.334 258.551 174.826 259.64C174.338 260.711 173.634 261.537 172.713 262.12C171.812 262.683 170.751 262.965 169.53 262.965C168.309 262.965 167.257 262.655 166.374 262.035C165.491 261.415 164.9 260.598 164.599 259.584H164.909V266.684C164.909 267.097 164.796 267.416 164.571 267.642C164.345 267.867 164.026 267.98 163.613 267.98ZM168.938 260.936C169.746 260.936 170.45 260.739 171.051 260.345C171.671 259.95 172.15 259.377 172.488 258.626C172.826 257.875 172.995 256.945 172.995 255.837C172.995 254.184 172.629 252.925 171.896 252.061C171.164 251.197 170.178 250.765 168.938 250.765C168.111 250.765 167.388 250.962 166.768 251.357C166.167 251.732 165.698 252.296 165.36 253.047C165.04 253.799 164.881 254.728 164.881 255.837C164.881 257.489 165.247 258.757 165.98 259.64C166.712 260.504 167.698 260.936 168.938 260.936Z"/>
</mask>
<path d="M35.6408 221.422C33.8043 221.422 32.405 220.941 31.443 219.979C30.481 219.017 30 217.596 30 215.716V179.969C30 178.045 30.481 176.58 31.443 175.574C32.405 174.525 33.6731 174 35.2473 174C36.6465 174 37.7397 174.262 38.5268 174.787C39.3139 175.312 40.1884 176.186 41.1504 177.411L61.9426 203.385H60.1061V179.641C60.1061 177.804 60.5652 176.405 61.4835 175.443C62.4455 174.481 63.8448 174 65.6813 174C67.5179 174 68.8953 174.481 69.8135 175.443C70.7755 176.405 71.2565 177.804 71.2565 179.641V215.978C71.2565 217.64 70.8192 218.973 69.9447 219.979C69.0702 220.941 67.8895 221.422 66.4028 221.422C64.9161 221.422 63.7355 221.16 62.8609 220.635C62.0301 220.067 61.1337 219.192 60.1717 218.011L39.3795 191.972H41.216V215.716C41.216 217.596 40.735 219.017 39.773 219.979C38.8547 220.941 37.4773 221.422 35.6408 221.422Z" fill="#FF6F61"/>
<path d="M81.8699 221.422C80.5144 221.422 79.3775 221.116 78.4592 220.504C77.5409 219.848 76.9725 218.973 76.7538 217.88C76.5352 216.743 76.732 215.475 77.3441 214.076L93.6762 178.919C94.4633 177.214 95.4253 175.968 96.5622 175.181C97.7428 174.394 99.0765 174 100.563 174C102.05 174 103.34 174.394 104.433 175.181C105.57 175.968 106.554 177.214 107.385 178.919L123.717 214.076C124.416 215.475 124.657 216.743 124.438 217.88C124.263 219.017 123.717 219.892 122.798 220.504C121.924 221.116 120.831 221.422 119.519 221.422C117.77 221.422 116.414 221.028 115.452 220.241C114.534 219.454 113.703 218.186 112.96 216.437L109.418 208.107L114.009 211.452H86.986L91.6429 208.107L88.101 216.437C87.3139 218.186 86.505 219.454 85.6742 220.241C84.8433 221.028 83.5753 221.422 81.8699 221.422ZM100.432 187.184L92.8235 205.352L90.987 202.204H110.074L108.237 205.352L100.563 187.184H100.432Z" fill="#4FB4A6"/>
<path d="M135.372 221.422C133.535 221.422 132.136 220.941 131.174 219.979C130.212 219.017 129.731 217.596 129.731 215.716V179.969C129.731 178.045 130.212 176.58 131.174 175.574C132.136 174.525 133.404 174 134.978 174C136.378 174 137.471 174.262 138.258 174.787C139.045 175.312 139.919 176.186 140.881 177.411L161.674 203.385H159.837V179.641C159.837 177.804 160.296 176.405 161.215 175.443C162.177 174.481 163.576 174 165.412 174C167.249 174 168.626 174.481 169.545 175.443C170.507 176.405 170.988 177.804 170.988 179.641V215.978C170.988 217.64 170.55 218.973 169.676 219.979C168.801 220.941 167.621 221.422 166.134 221.422C164.647 221.422 163.467 221.16 162.592 220.635C161.761 220.067 160.865 219.192 159.903 218.011L139.111 191.972H140.947V215.716C140.947 217.596 140.466 219.017 139.504 219.979C138.586 220.941 137.208 221.422 135.372 221.422Z" fill="#FFE98A"/>
<path d="M181.601 221.422C180.245 221.422 179.109 221.116 178.19 220.504C177.272 219.848 176.704 218.973 176.485 217.88C176.266 216.743 176.463 215.475 177.075 214.076L193.407 178.919C194.194 177.214 195.156 175.968 196.293 175.181C197.474 174.394 198.808 174 200.294 174C201.781 174 203.071 174.394 204.164 175.181C205.301 175.968 206.285 177.214 207.116 178.919L223.448 214.076C224.147 215.475 224.388 216.743 224.169 217.88C223.994 219.017 223.448 219.892 222.53 220.504C221.655 221.116 220.562 221.422 219.25 221.422C217.501 221.422 216.145 221.028 215.183 220.241C214.265 219.454 213.434 218.186 212.691 216.437L209.149 208.107L213.74 211.452H186.717L191.374 208.107L187.832 216.437C187.045 218.186 186.236 219.454 185.405 220.241C184.574 221.028 183.306 221.422 181.601 221.422ZM200.163 187.184L192.555 205.352L190.718 202.204H209.805L207.968 205.352L200.294 187.184H200.163Z" fill="#A8D7FF"/>
<path d="M81.999 262.965C80.8908 262.965 79.9611 262.768 79.2097 262.373C78.4772 261.979 77.9231 261.406 77.5474 260.654C77.1906 259.903 77.0121 258.983 77.0121 257.893V250.962H75.2089C74.8708 250.962 74.6079 250.878 74.42 250.709C74.2322 250.521 74.1383 250.277 74.1383 249.976C74.1383 249.657 74.2322 249.413 74.42 249.244C74.6079 249.075 74.8708 248.99 75.2089 248.99H77.0121V245.919C77.0121 245.487 77.1248 245.168 77.3502 244.961C77.5756 244.736 77.8949 244.623 78.3082 244.623C78.7214 244.623 79.0313 244.736 79.2379 244.961C79.4633 245.168 79.576 245.487 79.576 245.919V248.99H82.9851C83.342 248.99 83.6144 249.075 83.8022 249.244C83.99 249.413 84.084 249.657 84.084 249.976C84.084 250.277 83.99 250.521 83.8022 250.709C83.6144 250.878 83.342 250.962 82.9851 250.962H79.576V257.668C79.576 258.701 79.792 259.48 80.224 260.006C80.656 260.532 81.3698 260.795 82.3653 260.795C82.7222 260.795 83.0227 260.767 83.2669 260.711C83.5111 260.636 83.7271 260.598 83.9149 260.598C84.084 260.579 84.2248 260.636 84.3375 260.767C84.469 260.899 84.5348 261.143 84.5348 261.5C84.5348 261.763 84.4878 262.007 84.3939 262.232C84.3188 262.439 84.1591 262.58 83.9149 262.655C83.6895 262.73 83.389 262.796 83.0133 262.852C82.6377 262.927 82.2996 262.965 81.999 262.965Z" fill="#A9DFBF"/>
<path d="M87.8935 262.908C87.499 262.908 87.1891 262.796 86.9637 262.57C86.7383 262.345 86.6256 262.016 86.6256 261.584V243.947C86.6256 243.515 86.7383 243.196 86.9637 242.989C87.1891 242.764 87.499 242.651 87.8935 242.651C88.3067 242.651 88.626 242.764 88.8514 242.989C89.0768 243.196 89.1895 243.515 89.1895 243.947V251.977H88.8232C89.2177 250.906 89.8563 250.098 90.7391 249.554C91.6407 249.009 92.6644 248.737 93.8102 248.737C94.9184 248.737 95.8294 248.943 96.5431 249.356C97.2569 249.751 97.7922 250.352 98.1491 251.16C98.506 251.967 98.6844 252.982 98.6844 254.202V261.584C98.6844 262.016 98.5717 262.345 98.3463 262.57C98.1397 262.796 97.8298 262.908 97.4165 262.908C97.0033 262.908 96.684 262.796 96.4586 262.57C96.2332 262.345 96.1205 262.016 96.1205 261.584V254.343C96.1205 253.122 95.8857 252.23 95.4161 251.667C94.9465 251.103 94.1952 250.821 93.1621 250.821C91.96 250.821 90.9927 251.197 90.2602 251.948C89.5464 252.681 89.1895 253.677 89.1895 254.935V261.584C89.1895 262.467 88.7575 262.908 87.8935 262.908Z" fill="#A9DFBF"/>
<path d="M109.088 262.965C107.604 262.965 106.327 262.683 105.257 262.12C104.205 261.537 103.388 260.72 102.805 259.668C102.223 258.598 101.932 257.339 101.932 255.893C101.932 254.465 102.214 253.216 102.777 252.146C103.359 251.075 104.148 250.239 105.144 249.638C106.158 249.037 107.313 248.737 108.609 248.737C109.53 248.737 110.356 248.896 111.089 249.216C111.84 249.516 112.479 249.957 113.005 250.54C113.531 251.122 113.925 251.836 114.188 252.681C114.47 253.507 114.611 254.447 114.611 255.498C114.611 255.799 114.517 256.034 114.329 256.203C114.16 256.353 113.906 256.428 113.568 256.428H103.932V254.794H112.92L112.441 255.189C112.441 254.212 112.291 253.385 111.99 252.709C111.709 252.014 111.286 251.488 110.722 251.131C110.178 250.775 109.492 250.596 108.666 250.596C107.764 250.596 106.994 250.812 106.355 251.244C105.717 251.657 105.228 252.249 104.89 253.019C104.552 253.77 104.383 254.644 104.383 255.639V255.808C104.383 257.499 104.787 258.776 105.595 259.64C106.402 260.504 107.567 260.936 109.088 260.936C109.689 260.936 110.3 260.861 110.92 260.711C111.558 260.561 112.169 260.288 112.751 259.894C113.033 259.725 113.286 259.65 113.512 259.668C113.756 259.668 113.953 259.743 114.103 259.894C114.254 260.025 114.348 260.194 114.385 260.401C114.423 260.589 114.395 260.795 114.301 261.021C114.207 261.246 114.028 261.443 113.765 261.612C113.145 262.044 112.404 262.382 111.54 262.627C110.694 262.852 109.877 262.965 109.088 262.965Z" fill="#A9DFBF"/>
<path d="M125.202 262.908C124.864 262.908 124.592 262.833 124.385 262.683C124.197 262.533 124.084 262.326 124.047 262.063C124.009 261.8 124.066 261.509 124.216 261.19L131.908 243.778C132.077 243.383 132.293 243.102 132.556 242.933C132.819 242.745 133.11 242.651 133.429 242.651C133.748 242.651 134.03 242.745 134.274 242.933C134.537 243.102 134.763 243.383 134.95 243.778L142.642 261.19C142.792 261.509 142.849 261.81 142.811 262.091C142.792 262.354 142.689 262.561 142.501 262.711C142.313 262.843 142.05 262.908 141.712 262.908C141.337 262.908 141.036 262.814 140.811 262.627C140.585 262.42 140.388 262.129 140.219 261.753L138.219 257.076L139.43 257.752H127.371L128.583 257.076L126.583 261.753C126.414 262.166 126.226 262.467 126.019 262.655C125.812 262.824 125.54 262.908 125.202 262.908ZM133.373 245.806L128.977 256.203L128.301 255.611H138.5L137.852 256.203L133.429 245.806H133.373Z" fill="#A8D7FF"/>
<path d="M147.077 267.98C146.682 267.98 146.372 267.867 146.147 267.642C145.922 267.416 145.809 267.097 145.809 266.684V250.089C145.809 249.657 145.922 249.338 146.147 249.131C146.372 248.906 146.682 248.793 147.077 248.793C147.49 248.793 147.8 248.906 148.007 249.131C148.232 249.338 148.345 249.657 148.345 250.089V252.653L148.035 252.146C148.335 251.113 148.927 250.286 149.81 249.666C150.693 249.046 151.754 248.737 152.993 248.737C154.214 248.737 155.276 249.028 156.177 249.61C157.079 250.173 157.783 250.991 158.29 252.061C158.797 253.113 159.051 254.371 159.051 255.837C159.051 257.283 158.797 258.551 158.29 259.64C157.802 260.711 157.098 261.537 156.177 262.12C155.276 262.683 154.214 262.965 152.993 262.965C151.773 262.965 150.721 262.655 149.838 262.035C148.955 261.415 148.363 260.598 148.063 259.584H148.373V266.684C148.373 267.097 148.26 267.416 148.035 267.642C147.809 267.867 147.49 267.98 147.077 267.98ZM152.402 260.936C153.209 260.936 153.914 260.739 154.515 260.345C155.135 259.95 155.614 259.377 155.952 258.626C156.29 257.875 156.459 256.945 156.459 255.837C156.459 254.184 156.093 252.925 155.36 252.061C154.628 251.197 153.642 250.765 152.402 250.765C151.575 250.765 150.852 250.962 150.232 251.357C149.631 251.732 149.162 252.296 148.824 253.047C148.504 253.799 148.345 254.728 148.345 255.837C148.345 257.489 148.711 258.757 149.443 259.64C150.176 260.504 151.162 260.936 152.402 260.936Z" fill="#A8D7FF"/>
<path d="M163.613 267.98C163.218 267.98 162.909 267.867 162.683 267.642C162.458 267.416 162.345 267.097 162.345 266.684V250.089C162.345 249.657 162.458 249.338 162.683 249.131C162.909 248.906 163.218 248.793 163.613 248.793C164.026 248.793 164.336 248.906 164.543 249.131C164.768 249.338 164.881 249.657 164.881 250.089V252.653L164.571 252.146C164.871 251.113 165.463 250.286 166.346 249.666C167.229 249.046 168.29 248.737 169.53 248.737C170.751 248.737 171.812 249.028 172.713 249.61C173.615 250.173 174.319 250.991 174.826 252.061C175.334 253.113 175.587 254.371 175.587 255.837C175.587 257.283 175.334 258.551 174.826 259.64C174.338 260.711 173.634 261.537 172.713 262.12C171.812 262.683 170.751 262.965 169.53 262.965C168.309 262.965 167.257 262.655 166.374 262.035C165.491 261.415 164.9 260.598 164.599 259.584H164.909V266.684C164.909 267.097 164.796 267.416 164.571 267.642C164.345 267.867 164.026 267.98 163.613 267.98ZM168.938 260.936C169.746 260.936 170.45 260.739 171.051 260.345C171.671 259.95 172.15 259.377 172.488 258.626C172.826 257.875 172.995 256.945 172.995 255.837C172.995 254.184 172.629 252.925 171.896 252.061C171.164 251.197 170.178 250.765 168.938 250.765C168.111 250.765 167.388 250.962 166.768 251.357C166.167 251.732 165.698 252.296 165.36 253.047C165.04 253.799 164.881 254.728 164.881 255.837C164.881 257.489 165.247 258.757 165.98 259.64C166.712 260.504 167.698 260.936 168.938 260.936Z" fill="#A8D7FF"/>
<path d="M35.6408 221.422C33.8043 221.422 32.405 220.941 31.443 219.979C30.481 219.017 30 217.596 30 215.716V179.969C30 178.045 30.481 176.58 31.443 175.574C32.405 174.525 33.6731 174 35.2473 174C36.6465 174 37.7397 174.262 38.5268 174.787C39.3139 175.312 40.1884 176.186 41.1504 177.411L61.9426 203.385H60.1061V179.641C60.1061 177.804 60.5652 176.405 61.4835 175.443C62.4455 174.481 63.8448 174 65.6813 174C67.5179 174 68.8953 174.481 69.8135 175.443C70.7755 176.405 71.2565 177.804 71.2565 179.641V215.978C71.2565 217.64 70.8192 218.973 69.9447 219.979C69.0702 220.941 67.8895 221.422 66.4028 221.422C64.9161 221.422 63.7355 221.16 62.8609 220.635C62.0301 220.067 61.1337 219.192 60.1717 218.011L39.3795 191.972H41.216V215.716C41.216 217.596 40.735 219.017 39.773 219.979C38.8547 220.941 37.4773 221.422 35.6408 221.422Z" stroke="black" mask="url(#path-3-outside-1_1180_11207)"/>
<path d="M81.8699 221.422C80.5144 221.422 79.3775 221.116 78.4592 220.504C77.5409 219.848 76.9725 218.973 76.7538 217.88C76.5352 216.743 76.732 215.475 77.3441 214.076L93.6762 178.919C94.4633 177.214 95.4253 175.968 96.5622 175.181C97.7428 174.394 99.0765 174 100.563 174C102.05 174 103.34 174.394 104.433 175.181C105.57 175.968 106.554 177.214 107.385 178.919L123.717 214.076C124.416 215.475 124.657 216.743 124.438 217.88C124.263 219.017 123.717 219.892 122.798 220.504C121.924 221.116 120.831 221.422 119.519 221.422C117.77 221.422 116.414 221.028 115.452 220.241C114.534 219.454 113.703 218.186 112.96 216.437L109.418 208.107L114.009 211.452H86.986L91.6429 208.107L88.101 216.437C87.3139 218.186 86.505 219.454 85.6742 220.241C84.8433 221.028 83.5753 221.422 81.8699 221.422ZM100.432 187.184L92.8235 205.352L90.987 202.204H110.074L108.237 205.352L100.563 187.184H100.432Z" stroke="black" mask="url(#path-3-outside-1_1180_11207)"/>
<path d="M135.372 221.422C133.535 221.422 132.136 220.941 131.174 219.979C130.212 219.017 129.731 217.596 129.731 215.716V179.969C129.731 178.045 130.212 176.58 131.174 175.574C132.136 174.525 133.404 174 134.978 174C136.378 174 137.471 174.262 138.258 174.787C139.045 175.312 139.919 176.186 140.881 177.411L161.674 203.385H159.837V179.641C159.837 177.804 160.296 176.405 161.215 175.443C162.177 174.481 163.576 174 165.412 174C167.249 174 168.626 174.481 169.545 175.443C170.507 176.405 170.988 177.804 170.988 179.641V215.978C170.988 217.64 170.55 218.973 169.676 219.979C168.801 220.941 167.621 221.422 166.134 221.422C164.647 221.422 163.467 221.16 162.592 220.635C161.761 220.067 160.865 219.192 159.903 218.011L139.111 191.972H140.947V215.716C140.947 217.596 140.466 219.017 139.504 219.979C138.586 220.941 137.208 221.422 135.372 221.422Z" stroke="black" mask="url(#path-3-outside-1_1180_11207)"/>
<path d="M181.601 221.422C180.245 221.422 179.109 221.116 178.19 220.504C177.272 219.848 176.704 218.973 176.485 217.88C176.266 216.743 176.463 215.475 177.075 214.076L193.407 178.919C194.194 177.214 195.156 175.968 196.293 175.181C197.474 174.394 198.808 174 200.294 174C201.781 174 203.071 174.394 204.164 175.181C205.301 175.968 206.285 177.214 207.116 178.919L223.448 214.076C224.147 215.475 224.388 216.743 224.169 217.88C223.994 219.017 223.448 219.892 222.53 220.504C221.655 221.116 220.562 221.422 219.25 221.422C217.501 221.422 216.145 221.028 215.183 220.241C214.265 219.454 213.434 218.186 212.691 216.437L209.149 208.107L213.74 211.452H186.717L191.374 208.107L187.832 216.437C187.045 218.186 186.236 219.454 185.405 220.241C184.574 221.028 183.306 221.422 181.601 221.422ZM200.163 187.184L192.555 205.352L190.718 202.204H209.805L207.968 205.352L200.294 187.184H200.163Z" stroke="black" mask="url(#path-3-outside-1_1180_11207)"/>
<path d="M81.999 262.965C80.8908 262.965 79.9611 262.768 79.2097 262.373C78.4772 261.979 77.9231 261.406 77.5474 260.654C77.1906 259.903 77.0121 258.983 77.0121 257.893V250.962H75.2089C74.8708 250.962 74.6079 250.878 74.42 250.709C74.2322 250.521 74.1383 250.277 74.1383 249.976C74.1383 249.657 74.2322 249.413 74.42 249.244C74.6079 249.075 74.8708 248.99 75.2089 248.99H77.0121V245.919C77.0121 245.487 77.1248 245.168 77.3502 244.961C77.5756 244.736 77.8949 244.623 78.3082 244.623C78.7214 244.623 79.0313 244.736 79.2379 244.961C79.4633 245.168 79.576 245.487 79.576 245.919V248.99H82.9851C83.342 248.99 83.6144 249.075 83.8022 249.244C83.99 249.413 84.084 249.657 84.084 249.976C84.084 250.277 83.99 250.521 83.8022 250.709C83.6144 250.878 83.342 250.962 82.9851 250.962H79.576V257.668C79.576 258.701 79.792 259.48 80.224 260.006C80.656 260.532 81.3698 260.795 82.3653 260.795C82.7222 260.795 83.0227 260.767 83.2669 260.711C83.5111 260.636 83.7271 260.598 83.9149 260.598C84.084 260.579 84.2248 260.636 84.3375 260.767C84.469 260.899 84.5348 261.143 84.5348 261.5C84.5348 261.763 84.4878 262.007 84.3939 262.232C84.3188 262.439 84.1591 262.58 83.9149 262.655C83.6895 262.73 83.389 262.796 83.0133 262.852C82.6377 262.927 82.2996 262.965 81.999 262.965Z" stroke="black" mask="url(#path-3-outside-1_1180_11207)"/>
<path d="M87.8935 262.908C87.499 262.908 87.1891 262.796 86.9637 262.57C86.7383 262.345 86.6256 262.016 86.6256 261.584V243.947C86.6256 243.515 86.7383 243.196 86.9637 242.989C87.1891 242.764 87.499 242.651 87.8935 242.651C88.3067 242.651 88.626 242.764 88.8514 242.989C89.0768 243.196 89.1895 243.515 89.1895 243.947V251.977H88.8232C89.2177 250.906 89.8563 250.098 90.7391 249.554C91.6407 249.009 92.6644 248.737 93.8102 248.737C94.9184 248.737 95.8294 248.943 96.5431 249.356C97.2569 249.751 97.7922 250.352 98.1491 251.16C98.506 251.967 98.6844 252.982 98.6844 254.202V261.584C98.6844 262.016 98.5717 262.345 98.3463 262.57C98.1397 262.796 97.8298 262.908 97.4165 262.908C97.0033 262.908 96.684 262.796 96.4586 262.57C96.2332 262.345 96.1205 262.016 96.1205 261.584V254.343C96.1205 253.122 95.8857 252.23 95.4161 251.667C94.9465 251.103 94.1952 250.821 93.1621 250.821C91.96 250.821 90.9927 251.197 90.2602 251.948C89.5464 252.681 89.1895 253.677 89.1895 254.935V261.584C89.1895 262.467 88.7575 262.908 87.8935 262.908Z" stroke="black" mask="url(#path-3-outside-1_1180_11207)"/>
<path d="M109.088 262.965C107.604 262.965 106.327 262.683 105.257 262.12C104.205 261.537 103.388 260.72 102.805 259.668C102.223 258.598 101.932 257.339 101.932 255.893C101.932 254.465 102.214 253.216 102.777 252.146C103.359 251.075 104.148 250.239 105.144 249.638C106.158 249.037 107.313 248.737 108.609 248.737C109.53 248.737 110.356 248.896 111.089 249.216C111.84 249.516 112.479 249.957 113.005 250.54C113.531 251.122 113.925 251.836 114.188 252.681C114.47 253.507 114.611 254.447 114.611 255.498C114.611 255.799 114.517 256.034 114.329 256.203C114.16 256.353 113.906 256.428 113.568 256.428H103.932V254.794H112.92L112.441 255.189C112.441 254.212 112.291 253.385 111.99 252.709C111.709 252.014 111.286 251.488 110.722 251.131C110.178 250.775 109.492 250.596 108.666 250.596C107.764 250.596 106.994 250.812 106.355 251.244C105.717 251.657 105.228 252.249 104.89 253.019C104.552 253.77 104.383 254.644 104.383 255.639V255.808C104.383 257.499 104.787 258.776 105.595 259.64C106.402 260.504 107.567 260.936 109.088 260.936C109.689 260.936 110.3 260.861 110.92 260.711C111.558 260.561 112.169 260.288 112.751 259.894C113.033 259.725 113.286 259.65 113.512 259.668C113.756 259.668 113.953 259.743 114.103 259.894C114.254 260.025 114.348 260.194 114.385 260.401C114.423 260.589 114.395 260.795 114.301 261.021C114.207 261.246 114.028 261.443 113.765 261.612C113.145 262.044 112.404 262.382 111.54 262.627C110.694 262.852 109.877 262.965 109.088 262.965Z" stroke="black" mask="url(#path-3-outside-1_1180_11207)"/>
<path d="M125.202 262.908C124.864 262.908 124.592 262.833 124.385 262.683C124.197 262.533 124.084 262.326 124.047 262.063C124.009 261.8 124.066 261.509 124.216 261.19L131.908 243.778C132.077 243.383 132.293 243.102 132.556 242.933C132.819 242.745 133.11 242.651 133.429 242.651C133.748 242.651 134.03 242.745 134.274 242.933C134.537 243.102 134.763 243.383 134.95 243.778L142.642 261.19C142.792 261.509 142.849 261.81 142.811 262.091C142.792 262.354 142.689 262.561 142.501 262.711C142.313 262.843 142.05 262.908 141.712 262.908C141.337 262.908 141.036 262.814 140.811 262.627C140.585 262.42 140.388 262.129 140.219 261.753L138.219 257.076L139.43 257.752H127.371L128.583 257.076L126.583 261.753C126.414 262.166 126.226 262.467 126.019 262.655C125.812 262.824 125.54 262.908 125.202 262.908ZM133.373 245.806L128.977 256.203L128.301 255.611H138.5L137.852 256.203L133.429 245.806H133.373Z" stroke="black" mask="url(#path-3-outside-1_1180_11207)"/>
<path d="M147.077 267.98C146.682 267.98 146.372 267.867 146.147 267.642C145.922 267.416 145.809 267.097 145.809 266.684V250.089C145.809 249.657 145.922 249.338 146.147 249.131C146.372 248.906 146.682 248.793 147.077 248.793C147.49 248.793 147.8 248.906 148.007 249.131C148.232 249.338 148.345 249.657 148.345 250.089V252.653L148.035 252.146C148.335 251.113 148.927 250.286 149.81 249.666C150.693 249.046 151.754 248.737 152.993 248.737C154.214 248.737 155.276 249.028 156.177 249.61C157.079 250.173 157.783 250.991 158.29 252.061C158.797 253.113 159.051 254.371 159.051 255.837C159.051 257.283 158.797 258.551 158.29 259.64C157.802 260.711 157.098 261.537 156.177 262.12C155.276 262.683 154.214 262.965 152.993 262.965C151.773 262.965 150.721 262.655 149.838 262.035C148.955 261.415 148.363 260.598 148.063 259.584H148.373V266.684C148.373 267.097 148.26 267.416 148.035 267.642C147.809 267.867 147.49 267.98 147.077 267.98ZM152.402 260.936C153.209 260.936 153.914 260.739 154.515 260.345C155.135 259.95 155.614 259.377 155.952 258.626C156.29 257.875 156.459 256.945 156.459 255.837C156.459 254.184 156.093 252.925 155.36 252.061C154.628 251.197 153.642 250.765 152.402 250.765C151.575 250.765 150.852 250.962 150.232 251.357C149.631 251.732 149.162 252.296 148.824 253.047C148.504 253.799 148.345 254.728 148.345 255.837C148.345 257.489 148.711 258.757 149.443 259.64C150.176 260.504 151.162 260.936 152.402 260.936Z" stroke="black" mask="url(#path-3-outside-1_1180_11207)"/>
<path d="M163.613 267.98C163.218 267.98 162.909 267.867 162.683 267.642C162.458 267.416 162.345 267.097 162.345 266.684V250.089C162.345 249.657 162.458 249.338 162.683 249.131C162.909 248.906 163.218 248.793 163.613 248.793C164.026 248.793 164.336 248.906 164.543 249.131C164.768 249.338 164.881 249.657 164.881 250.089V252.653L164.571 252.146C164.871 251.113 165.463 250.286 166.346 249.666C167.229 249.046 168.29 248.737 169.53 248.737C170.751 248.737 171.812 249.028 172.713 249.61C173.615 250.173 174.319 250.991 174.826 252.061C175.334 253.113 175.587 254.371 175.587 255.837C175.587 257.283 175.334 258.551 174.826 259.64C174.338 260.711 173.634 261.537 172.713 262.12C171.812 262.683 170.751 262.965 169.53 262.965C168.309 262.965 167.257 262.655 166.374 262.035C165.491 261.415 164.9 260.598 164.599 259.584H164.909V266.684C164.909 267.097 164.796 267.416 164.571 267.642C164.345 267.867 164.026 267.98 163.613 267.98ZM168.938 260.936C169.746 260.936 170.45 260.739 171.051 260.345C171.671 259.95 172.15 259.377 172.488 258.626C172.826 257.875 172.995 256.945 172.995 255.837C172.995 254.184 172.629 252.925 171.896 252.061C171.164 251.197 170.178 250.765 168.938 250.765C168.111 250.765 167.388 250.962 166.768 251.357C166.167 251.732 165.698 252.296 165.36 253.047C165.04 253.799 164.881 254.728 164.881 255.837C164.881 257.489 165.247 258.757 165.98 259.64C166.712 260.504 167.698 260.936 168.938 260.936Z" stroke="black" mask="url(#path-3-outside-1_1180_11207)"/>
</g>
<defs>
<filter id="filter0_d_1180_11207" x="29.5" y="173.5" width="195.248" height="95.9805" filterUnits="userSpaceOnUse" color-interpolation-filters="sRGB">
<feFlood flood-opacity="0" result="BackgroundImageFix"/>
<feColorMatrix in="SourceAlpha" type="matrix" values="0 0 0 0 0 0 0 0 0 0 0 0 0 0 0 0 0 0 127 0" result="hardAlpha"/>
<feOffset dy="1"/>
<feComposite in2="hardAlpha" operator="out"/>
<feColorMatrix type="matrix" values="0 0 0 0 0 0 0 0 0 0 0 0 0 0 0 0 0 0 0.95 0"/>
<feBlend mode="normal" in2="BackgroundImageFix" result="effect1_dropShadow_1180_11207"/>
<feBlend mode="normal" in="SourceGraphic" in2="effect1_dropShadow_1180_11207" result="shape"/>
</filter>
</defs>
</svg>
