<svg width="41" height="41" viewBox="0 0 41 41" fill="none" xmlns="http://www.w3.org/2000/svg">
<path d="M20.3704 0.229379C31.4187 0.302021 40.3173 9.40427 40.2444 20.5622C40.1713 31.7203 31.1541 40.7059 20.1057 40.6338C9.05702 40.5614 0.15755 31.4582 0.230657 20.3C0.303971 9.14195 9.32187 0.156991 20.3704 0.229379ZM20.3192 8.04073C13.5406 7.99632 8.0099 13.5086 7.96487 20.3507C7.92004 27.193 13.3781 32.778 20.1569 32.8224C26.9354 32.8666 32.4654 27.3536 32.5102 20.5115C32.5549 13.6695 27.0977 8.0854 20.3192 8.04073ZM24.3543 24.0079C24.587 24.0487 24.782 24.183 24.8931 24.3572C25.003 24.5298 25.0314 24.7414 24.9351 24.9483C24.7476 25.3509 24.4837 25.7159 24.1566 26.0223C23.6015 26.5421 22.893 26.8642 22.1398 26.9378C21.3866 27.0114 20.6301 26.8331 19.9868 26.4306C19.6077 26.1933 19.2804 25.8855 19.0201 25.5267C18.8863 25.3424 18.8734 25.1293 18.9487 24.9384C19.0247 24.7457 19.1909 24.5763 19.4116 24.4912C19.6285 24.4077 19.8618 24.4271 20.098 24.5094C20.3349 24.5918 20.5677 24.7353 20.7762 24.8888C20.8116 24.9148 20.8487 24.9394 20.8861 24.9628C21.2117 25.1665 21.5948 25.2572 21.9762 25.2199C22.3576 25.1826 22.7162 25.0197 22.9969 24.7569C23.029 24.7268 23.0596 24.695 23.0893 24.6628C23.2648 24.4716 23.4665 24.2857 23.6834 24.1588C23.8999 24.0323 24.1256 23.968 24.3543 24.0079ZM17.2554 18.81C18.1819 18.816 18.9301 19.5795 18.924 20.5172C18.9178 21.455 18.1597 22.2085 17.2332 22.2025C16.3069 22.1962 15.5595 21.4329 15.5656 20.4952C15.5718 19.5576 16.3292 18.8041 17.2554 18.81ZM25.3072 17.3519C26.4402 17.3594 27.3547 18.2932 27.3472 19.4396C27.3396 20.5858 26.4129 21.5077 25.28 21.5003C24.1471 21.4927 23.2334 20.5588 23.2409 19.4127C23.2484 18.2664 24.1743 17.3447 25.3072 17.3519Z" fill="#FF6F61" stroke="black" stroke-width="0.195194"/>
</svg>
